<mxfile host="Electron" modified="2023-11-14T01:10:40.116Z" agent="Mozilla/5.0 (Windows NT 10.0; Win64; x64) AppleWebKit/537.36 (KHTML, like Gecko) draw.io/22.0.3 Chrome/114.0.5735.289 Electron/25.8.4 Safari/537.36" etag="LUQiVMuUqvdzHjiEYWOd" version="22.0.3" type="device">
  <diagram name="Page-1" id="StpSlfY3rpBkLnD2WQQ0">
    <mxGraphModel dx="1343" dy="1746" grid="1" gridSize="10" guides="1" tooltips="1" connect="1" arrows="1" fold="1" page="1" pageScale="1" pageWidth="850" pageHeight="1100" math="0" shadow="0">
      <root>
        <mxCell id="0" />
        <mxCell id="1" parent="0" />
        <mxCell id="GNItqELm_zsXpws-zPew-1" value="User" style="shape=umlActor;verticalLabelPosition=bottom;verticalAlign=top;html=1;outlineConnect=0;" parent="1" vertex="1">
          <mxGeometry x="200" y="690" width="30" height="60" as="geometry" />
        </mxCell>
        <mxCell id="GNItqELm_zsXpws-zPew-3" value="Bank" style="shape=umlActor;verticalLabelPosition=bottom;verticalAlign=top;html=1;outlineConnect=0;" parent="1" vertex="1">
          <mxGeometry x="630" y="850" width="30" height="60" as="geometry" />
        </mxCell>
        <mxCell id="GNItqELm_zsXpws-zPew-4" value="System Admin" style="shape=umlActor;verticalLabelPosition=bottom;verticalAlign=top;html=1;outlineConnect=0;" parent="1" vertex="1">
          <mxGeometry x="710" y="460" width="30" height="60" as="geometry" />
        </mxCell>
        <mxCell id="GNItqELm_zsXpws-zPew-11" value="Email Admin" style="shape=umlActor;verticalLabelPosition=bottom;verticalAlign=top;html=1;outlineConnect=0;" parent="1" vertex="1">
          <mxGeometry x="610" y="1300" width="30" height="60" as="geometry" />
        </mxCell>
        <mxCell id="GNItqELm_zsXpws-zPew-16" value="Select Flights" style="ellipse;whiteSpace=wrap;html=1;" parent="1" vertex="1">
          <mxGeometry x="380" y="400" width="120" height="80" as="geometry" />
        </mxCell>
        <mxCell id="5JrX3-N6ZL3WyslIG2HY-10" value="Registered User" style="shape=umlActor;verticalLabelPosition=bottom;verticalAlign=top;html=1;outlineConnect=0;" parent="1" vertex="1">
          <mxGeometry x="200" y="860" width="30" height="60" as="geometry" />
        </mxCell>
        <mxCell id="5JrX3-N6ZL3WyslIG2HY-14" value="Airline Agent" style="shape=umlActor;verticalLabelPosition=bottom;verticalAlign=top;html=1;outlineConnect=0;" parent="1" vertex="1">
          <mxGeometry x="200" y="180" width="30" height="60" as="geometry" />
        </mxCell>
        <mxCell id="5JrX3-N6ZL3WyslIG2HY-19" value="Book Flights" style="ellipse;whiteSpace=wrap;html=1;" parent="1" vertex="1">
          <mxGeometry x="380" y="500" width="120" height="80" as="geometry" />
        </mxCell>
        <mxCell id="5JrX3-N6ZL3WyslIG2HY-20" value="Select Seat" style="ellipse;whiteSpace=wrap;html=1;" parent="1" vertex="1">
          <mxGeometry x="380" y="700" width="120" height="80" as="geometry" />
        </mxCell>
        <mxCell id="5JrX3-N6ZL3WyslIG2HY-22" value="Make Payment" style="ellipse;whiteSpace=wrap;html=1;" parent="1" vertex="1">
          <mxGeometry x="380" y="900" width="120" height="80" as="geometry" />
        </mxCell>
        <mxCell id="5JrX3-N6ZL3WyslIG2HY-24" value="Cancel Flight" style="ellipse;whiteSpace=wrap;html=1;" parent="1" vertex="1">
          <mxGeometry x="380" y="1000" width="120" height="80" as="geometry" />
        </mxCell>
        <mxCell id="5JrX3-N6ZL3WyslIG2HY-30" value="Send Receipt" style="ellipse;whiteSpace=wrap;html=1;" parent="1" vertex="1">
          <mxGeometry x="380" y="1190" width="120" height="80" as="geometry" />
        </mxCell>
        <mxCell id="5JrX3-N6ZL3WyslIG2HY-35" value="Send Cancellation Email" style="ellipse;whiteSpace=wrap;html=1;" parent="1" vertex="1">
          <mxGeometry x="380" y="1370" width="120" height="80" as="geometry" />
        </mxCell>
        <mxCell id="5JrX3-N6ZL3WyslIG2HY-37" value="" style="endArrow=none;html=1;rounded=0;entryX=0;entryY=0.637;entryDx=0;entryDy=0;entryPerimeter=0;" parent="1" target="GNItqELm_zsXpws-zPew-16" edge="1">
          <mxGeometry width="50" height="50" relative="1" as="geometry">
            <mxPoint x="260" y="720" as="sourcePoint" />
            <mxPoint x="310" y="670" as="targetPoint" />
          </mxGeometry>
        </mxCell>
        <mxCell id="5JrX3-N6ZL3WyslIG2HY-41" value="Edit Database" style="ellipse;whiteSpace=wrap;html=1;" parent="1" vertex="1">
          <mxGeometry x="380" y="-430" width="120" height="80" as="geometry" />
        </mxCell>
        <mxCell id="5JrX3-N6ZL3WyslIG2HY-43" value="Send Newsletter" style="ellipse;whiteSpace=wrap;html=1;" parent="1" vertex="1">
          <mxGeometry x="380" y="1280" width="120" height="80" as="geometry" />
        </mxCell>
        <mxCell id="nIRv_Cfk8VG59TKc5owY-1" value="" style="endArrow=none;html=1;rounded=0;entryX=0.013;entryY=0.738;entryDx=0;entryDy=0;entryPerimeter=0;" parent="1" target="5JrX3-N6ZL3WyslIG2HY-19" edge="1">
          <mxGeometry width="50" height="50" relative="1" as="geometry">
            <mxPoint x="260" y="720" as="sourcePoint" />
            <mxPoint x="390" y="505.5" as="targetPoint" />
          </mxGeometry>
        </mxCell>
        <mxCell id="nIRv_Cfk8VG59TKc5owY-2" value="" style="endArrow=none;html=1;rounded=0;entryX=0;entryY=0.5;entryDx=0;entryDy=0;" parent="1" target="nIRv_Cfk8VG59TKc5owY-6" edge="1">
          <mxGeometry width="50" height="50" relative="1" as="geometry">
            <mxPoint x="260" y="720" as="sourcePoint" />
            <mxPoint x="380" y="640" as="targetPoint" />
          </mxGeometry>
        </mxCell>
        <mxCell id="nIRv_Cfk8VG59TKc5owY-3" value="" style="endArrow=none;html=1;rounded=0;entryX=0;entryY=0.5;entryDx=0;entryDy=0;" parent="1" target="5JrX3-N6ZL3WyslIG2HY-20" edge="1">
          <mxGeometry width="50" height="50" relative="1" as="geometry">
            <mxPoint x="260" y="720" as="sourcePoint" />
            <mxPoint x="390" y="650" as="targetPoint" />
          </mxGeometry>
        </mxCell>
        <mxCell id="nIRv_Cfk8VG59TKc5owY-4" value="Select Insurance" style="ellipse;whiteSpace=wrap;html=1;" parent="1" vertex="1">
          <mxGeometry x="380" y="800" width="120" height="80" as="geometry" />
        </mxCell>
        <mxCell id="nIRv_Cfk8VG59TKc5owY-6" value="Browse Seat Map" style="ellipse;whiteSpace=wrap;html=1;" parent="1" vertex="1">
          <mxGeometry x="380" y="600" width="120" height="80" as="geometry" />
        </mxCell>
        <mxCell id="nIRv_Cfk8VG59TKc5owY-7" value="" style="endArrow=none;html=1;rounded=0;entryX=0;entryY=0.5;entryDx=0;entryDy=0;" parent="1" target="nIRv_Cfk8VG59TKc5owY-4" edge="1">
          <mxGeometry width="50" height="50" relative="1" as="geometry">
            <mxPoint x="260" y="720" as="sourcePoint" />
            <mxPoint x="390" y="750" as="targetPoint" />
          </mxGeometry>
        </mxCell>
        <mxCell id="nIRv_Cfk8VG59TKc5owY-8" value="" style="endArrow=none;html=1;rounded=0;entryX=0;entryY=0.5;entryDx=0;entryDy=0;" parent="1" target="5JrX3-N6ZL3WyslIG2HY-22" edge="1">
          <mxGeometry width="50" height="50" relative="1" as="geometry">
            <mxPoint x="260" y="720" as="sourcePoint" />
            <mxPoint x="390" y="850" as="targetPoint" />
          </mxGeometry>
        </mxCell>
        <mxCell id="nIRv_Cfk8VG59TKc5owY-9" value="" style="endArrow=none;html=1;rounded=0;entryX=0;entryY=0.5;entryDx=0;entryDy=0;" parent="1" target="5JrX3-N6ZL3WyslIG2HY-24" edge="1">
          <mxGeometry width="50" height="50" relative="1" as="geometry">
            <mxPoint x="260" y="720" as="sourcePoint" />
            <mxPoint x="390" y="950" as="targetPoint" />
          </mxGeometry>
        </mxCell>
        <mxCell id="bnoOLWUFZuZc33-oHrPN-1" value="Browse Flights" style="ellipse;whiteSpace=wrap;html=1;" parent="1" vertex="1">
          <mxGeometry x="380" y="300" width="120" height="80" as="geometry" />
        </mxCell>
        <mxCell id="bnoOLWUFZuZc33-oHrPN-4" value="" style="endArrow=classic;html=1;rounded=0;" parent="1" edge="1">
          <mxGeometry width="50" height="50" relative="1" as="geometry">
            <mxPoint x="214.5" y="840" as="sourcePoint" />
            <mxPoint x="214.5" y="780" as="targetPoint" />
          </mxGeometry>
        </mxCell>
        <mxCell id="bnoOLWUFZuZc33-oHrPN-6" value="" style="endArrow=none;html=1;rounded=0;entryX=0;entryY=0.647;entryDx=0;entryDy=0;entryPerimeter=0;" parent="1" target="bnoOLWUFZuZc33-oHrPN-1" edge="1">
          <mxGeometry width="50" height="50" relative="1" as="geometry">
            <mxPoint x="260" y="720" as="sourcePoint" />
            <mxPoint x="350" y="380" as="targetPoint" />
          </mxGeometry>
        </mxCell>
        <mxCell id="bnoOLWUFZuZc33-oHrPN-12" value="" style="endArrow=none;html=1;rounded=0;exitX=1.02;exitY=0.598;exitDx=0;exitDy=0;exitPerimeter=0;" parent="1" source="nIRv_Cfk8VG59TKc5owY-4" edge="1">
          <mxGeometry width="50" height="50" relative="1" as="geometry">
            <mxPoint x="530" y="930" as="sourcePoint" />
            <mxPoint x="620" y="880" as="targetPoint" />
          </mxGeometry>
        </mxCell>
        <mxCell id="bnoOLWUFZuZc33-oHrPN-13" value="" style="endArrow=none;html=1;rounded=0;exitX=1;exitY=0.5;exitDx=0;exitDy=0;" parent="1" source="5JrX3-N6ZL3WyslIG2HY-22" edge="1">
          <mxGeometry width="50" height="50" relative="1" as="geometry">
            <mxPoint x="530" y="930" as="sourcePoint" />
            <mxPoint x="620" y="880" as="targetPoint" />
          </mxGeometry>
        </mxCell>
        <mxCell id="bnoOLWUFZuZc33-oHrPN-14" value="" style="endArrow=none;html=1;rounded=0;exitX=1;exitY=0.5;exitDx=0;exitDy=0;" parent="1" source="5JrX3-N6ZL3WyslIG2HY-24" edge="1">
          <mxGeometry width="50" height="50" relative="1" as="geometry">
            <mxPoint x="530" y="930" as="sourcePoint" />
            <mxPoint x="620" y="880" as="targetPoint" />
          </mxGeometry>
        </mxCell>
        <mxCell id="bnoOLWUFZuZc33-oHrPN-16" value="" style="endArrow=none;html=1;rounded=0;exitX=1;exitY=0.5;exitDx=0;exitDy=0;" parent="1" source="5JrX3-N6ZL3WyslIG2HY-30" edge="1">
          <mxGeometry width="50" height="50" relative="1" as="geometry">
            <mxPoint x="530" y="1330" as="sourcePoint" />
            <mxPoint x="600" y="1330" as="targetPoint" />
          </mxGeometry>
        </mxCell>
        <mxCell id="bnoOLWUFZuZc33-oHrPN-17" value="" style="endArrow=none;html=1;rounded=0;exitX=1;exitY=0.5;exitDx=0;exitDy=0;" parent="1" source="5JrX3-N6ZL3WyslIG2HY-43" edge="1">
          <mxGeometry width="50" height="50" relative="1" as="geometry">
            <mxPoint x="530" y="1230" as="sourcePoint" />
            <mxPoint x="600" y="1330" as="targetPoint" />
          </mxGeometry>
        </mxCell>
        <mxCell id="bnoOLWUFZuZc33-oHrPN-18" value="" style="endArrow=none;html=1;rounded=0;exitX=1;exitY=0.5;exitDx=0;exitDy=0;" parent="1" source="5JrX3-N6ZL3WyslIG2HY-35" edge="1">
          <mxGeometry width="50" height="50" relative="1" as="geometry">
            <mxPoint x="440" y="1470" as="sourcePoint" />
            <mxPoint x="600" y="1330" as="targetPoint" />
          </mxGeometry>
        </mxCell>
        <mxCell id="bnoOLWUFZuZc33-oHrPN-20" value="Flight Attendant" style="shape=umlActor;verticalLabelPosition=bottom;verticalAlign=top;html=1;outlineConnect=0;" parent="1" vertex="1">
          <mxGeometry x="240" y="-330" width="30" height="60" as="geometry" />
        </mxCell>
        <mxCell id="bnoOLWUFZuZc33-oHrPN-25" value="" style="endArrow=none;html=1;rounded=0;exitX=1;exitY=0.5;exitDx=0;exitDy=0;" parent="1" source="bnoOLWUFZuZc33-oHrPN-1" edge="1">
          <mxGeometry width="50" height="50" relative="1" as="geometry">
            <mxPoint x="530" y="570" as="sourcePoint" />
            <mxPoint x="700" y="490" as="targetPoint" />
          </mxGeometry>
        </mxCell>
        <mxCell id="bnoOLWUFZuZc33-oHrPN-26" value="Receive Ticket" style="ellipse;whiteSpace=wrap;html=1;" parent="1" vertex="1">
          <mxGeometry x="380" y="1100" width="120" height="80" as="geometry" />
        </mxCell>
        <mxCell id="bnoOLWUFZuZc33-oHrPN-27" value="" style="endArrow=none;html=1;rounded=0;entryX=0;entryY=0.5;entryDx=0;entryDy=0;" parent="1" target="bnoOLWUFZuZc33-oHrPN-26" edge="1">
          <mxGeometry width="50" height="50" relative="1" as="geometry">
            <mxPoint x="260" y="720" as="sourcePoint" />
            <mxPoint x="310" y="1150" as="targetPoint" />
          </mxGeometry>
        </mxCell>
        <mxCell id="bnoOLWUFZuZc33-oHrPN-29" value="" style="endArrow=none;html=1;rounded=0;exitX=1;exitY=0.5;exitDx=0;exitDy=0;" parent="1" source="bnoOLWUFZuZc33-oHrPN-26" edge="1">
          <mxGeometry width="50" height="50" relative="1" as="geometry">
            <mxPoint x="530" y="1170" as="sourcePoint" />
            <mxPoint x="600" y="1330" as="targetPoint" />
          </mxGeometry>
        </mxCell>
        <mxCell id="bnoOLWUFZuZc33-oHrPN-30" value="Browse Flight Crew" style="ellipse;whiteSpace=wrap;html=1;" parent="1" vertex="1">
          <mxGeometry x="380" y="210" width="120" height="80" as="geometry" />
        </mxCell>
        <mxCell id="bnoOLWUFZuZc33-oHrPN-32" value="Browse Aircraft" style="ellipse;whiteSpace=wrap;html=1;" parent="1" vertex="1">
          <mxGeometry x="380" y="120" width="120" height="80" as="geometry" />
        </mxCell>
        <mxCell id="bnoOLWUFZuZc33-oHrPN-33" value="" style="endArrow=none;html=1;rounded=0;exitX=1;exitY=0.5;exitDx=0;exitDy=0;" parent="1" source="bnoOLWUFZuZc33-oHrPN-30" edge="1">
          <mxGeometry width="50" height="50" relative="1" as="geometry">
            <mxPoint x="530" y="380" as="sourcePoint" />
            <mxPoint x="700" y="490" as="targetPoint" />
          </mxGeometry>
        </mxCell>
        <mxCell id="bnoOLWUFZuZc33-oHrPN-34" value="" style="endArrow=none;html=1;rounded=0;exitX=1;exitY=0.5;exitDx=0;exitDy=0;" parent="1" source="bnoOLWUFZuZc33-oHrPN-32" edge="1">
          <mxGeometry width="50" height="50" relative="1" as="geometry">
            <mxPoint x="530" y="380" as="sourcePoint" />
            <mxPoint x="700" y="490" as="targetPoint" />
          </mxGeometry>
        </mxCell>
        <mxCell id="bnoOLWUFZuZc33-oHrPN-35" value="Add/remove crew" style="ellipse;whiteSpace=wrap;html=1;" parent="1" vertex="1">
          <mxGeometry x="380" y="30" width="120" height="80" as="geometry" />
        </mxCell>
        <mxCell id="bnoOLWUFZuZc33-oHrPN-36" value="Add/remove aircraft" style="ellipse;whiteSpace=wrap;html=1;" parent="1" vertex="1">
          <mxGeometry x="380" y="-60" width="120" height="80" as="geometry" />
        </mxCell>
        <mxCell id="bnoOLWUFZuZc33-oHrPN-37" value="Add/remove flight destinations" style="ellipse;whiteSpace=wrap;html=1;" parent="1" vertex="1">
          <mxGeometry x="380" y="-150" width="120" height="80" as="geometry" />
        </mxCell>
        <mxCell id="bnoOLWUFZuZc33-oHrPN-38" value="Add/remove/modify flight information" style="ellipse;whiteSpace=wrap;html=1;" parent="1" vertex="1">
          <mxGeometry x="380" y="-240" width="120" height="80" as="geometry" />
        </mxCell>
        <mxCell id="bnoOLWUFZuZc33-oHrPN-39" value="Print User List" style="ellipse;whiteSpace=wrap;html=1;" parent="1" vertex="1">
          <mxGeometry x="380" y="-330" width="120" height="80" as="geometry" />
        </mxCell>
        <mxCell id="bnoOLWUFZuZc33-oHrPN-40" value="" style="endArrow=none;html=1;rounded=0;exitX=1;exitY=0.5;exitDx=0;exitDy=0;" parent="1" source="bnoOLWUFZuZc33-oHrPN-35" edge="1">
          <mxGeometry width="50" height="50" relative="1" as="geometry">
            <mxPoint x="530" y="-70" as="sourcePoint" />
            <mxPoint x="700" y="490" as="targetPoint" />
          </mxGeometry>
        </mxCell>
        <mxCell id="bnoOLWUFZuZc33-oHrPN-41" value="" style="endArrow=none;html=1;rounded=0;exitX=1;exitY=0.5;exitDx=0;exitDy=0;" parent="1" source="bnoOLWUFZuZc33-oHrPN-36" edge="1">
          <mxGeometry width="50" height="50" relative="1" as="geometry">
            <mxPoint x="510" y="80" as="sourcePoint" />
            <mxPoint x="700" y="490" as="targetPoint" />
          </mxGeometry>
        </mxCell>
        <mxCell id="bnoOLWUFZuZc33-oHrPN-42" value="" style="endArrow=none;html=1;rounded=0;exitX=1;exitY=0.5;exitDx=0;exitDy=0;" parent="1" source="bnoOLWUFZuZc33-oHrPN-37" edge="1">
          <mxGeometry width="50" height="50" relative="1" as="geometry">
            <mxPoint x="570" y="-50" as="sourcePoint" />
            <mxPoint x="700" y="490" as="targetPoint" />
          </mxGeometry>
        </mxCell>
        <mxCell id="bnoOLWUFZuZc33-oHrPN-43" value="" style="endArrow=none;html=1;rounded=0;exitX=1;exitY=0.5;exitDx=0;exitDy=0;" parent="1" source="bnoOLWUFZuZc33-oHrPN-38" edge="1">
          <mxGeometry width="50" height="50" relative="1" as="geometry">
            <mxPoint x="560" y="-220" as="sourcePoint" />
            <mxPoint x="700" y="490" as="targetPoint" />
          </mxGeometry>
        </mxCell>
        <mxCell id="bnoOLWUFZuZc33-oHrPN-44" value="" style="endArrow=none;html=1;rounded=0;exitX=1;exitY=0.5;exitDx=0;exitDy=0;" parent="1" source="bnoOLWUFZuZc33-oHrPN-39" edge="1">
          <mxGeometry width="50" height="50" relative="1" as="geometry">
            <mxPoint x="530" y="-50" as="sourcePoint" />
            <mxPoint x="700" y="490" as="targetPoint" />
          </mxGeometry>
        </mxCell>
        <mxCell id="bnoOLWUFZuZc33-oHrPN-45" value="Browse List of Passengers" style="ellipse;whiteSpace=wrap;html=1;" parent="1" vertex="1">
          <mxGeometry x="380" y="-530" width="120" height="80" as="geometry" />
        </mxCell>
        <mxCell id="bnoOLWUFZuZc33-oHrPN-48" value="" style="endArrow=none;html=1;rounded=0;" parent="1" edge="1">
          <mxGeometry width="50" height="50" relative="1" as="geometry">
            <mxPoint x="280" y="-300" as="sourcePoint" />
            <mxPoint x="380" y="-500" as="targetPoint" />
          </mxGeometry>
        </mxCell>
        <mxCell id="bnoOLWUFZuZc33-oHrPN-50" value="" style="endArrow=none;html=1;rounded=0;exitX=1;exitY=0.5;exitDx=0;exitDy=0;" parent="1" source="5JrX3-N6ZL3WyslIG2HY-41" edge="1">
          <mxGeometry width="50" height="50" relative="1" as="geometry">
            <mxPoint x="530" y="-450" as="sourcePoint" />
            <mxPoint x="700" y="490" as="targetPoint" />
          </mxGeometry>
        </mxCell>
        <mxCell id="bnoOLWUFZuZc33-oHrPN-52" value="" style="endArrow=none;html=1;rounded=0;exitX=1.027;exitY=0.367;exitDx=0;exitDy=0;exitPerimeter=0;" parent="1" source="GNItqELm_zsXpws-zPew-16" edge="1">
          <mxGeometry width="50" height="50" relative="1" as="geometry">
            <mxPoint x="530" y="390" as="sourcePoint" />
            <mxPoint x="700" y="490" as="targetPoint" />
          </mxGeometry>
        </mxCell>
        <mxCell id="bnoOLWUFZuZc33-oHrPN-53" value="" style="endArrow=none;html=1;rounded=0;exitX=1;exitY=0.5;exitDx=0;exitDy=0;" parent="1" source="5JrX3-N6ZL3WyslIG2HY-19" edge="1">
          <mxGeometry width="50" height="50" relative="1" as="geometry">
            <mxPoint x="530" y="590" as="sourcePoint" />
            <mxPoint x="700" y="490" as="targetPoint" />
          </mxGeometry>
        </mxCell>
        <mxCell id="bnoOLWUFZuZc33-oHrPN-54" value="" style="endArrow=none;html=1;rounded=0;exitX=1;exitY=0.5;exitDx=0;exitDy=0;" parent="1" source="nIRv_Cfk8VG59TKc5owY-6" edge="1">
          <mxGeometry width="50" height="50" relative="1" as="geometry">
            <mxPoint x="530" y="790" as="sourcePoint" />
            <mxPoint x="700" y="490" as="targetPoint" />
          </mxGeometry>
        </mxCell>
        <mxCell id="bnoOLWUFZuZc33-oHrPN-55" value="" style="endArrow=none;html=1;rounded=0;exitX=1;exitY=0.5;exitDx=0;exitDy=0;" parent="1" source="5JrX3-N6ZL3WyslIG2HY-20" edge="1">
          <mxGeometry width="50" height="50" relative="1" as="geometry">
            <mxPoint x="530" y="590" as="sourcePoint" />
            <mxPoint x="700" y="490" as="targetPoint" />
          </mxGeometry>
        </mxCell>
        <mxCell id="bnoOLWUFZuZc33-oHrPN-56" value="" style="endArrow=none;html=1;rounded=0;entryX=0;entryY=0.423;entryDx=0;entryDy=0;entryPerimeter=0;" parent="1" target="5JrX3-N6ZL3WyslIG2HY-30" edge="1">
          <mxGeometry width="50" height="50" relative="1" as="geometry">
            <mxPoint x="260" y="720" as="sourcePoint" />
            <mxPoint x="330" y="1305" as="targetPoint" />
          </mxGeometry>
        </mxCell>
        <mxCell id="bnoOLWUFZuZc33-oHrPN-57" value="" style="endArrow=none;html=1;rounded=0;entryX=0;entryY=0.5;entryDx=0;entryDy=0;" parent="1" target="5JrX3-N6ZL3WyslIG2HY-43" edge="1">
          <mxGeometry width="50" height="50" relative="1" as="geometry">
            <mxPoint x="260" y="720" as="sourcePoint" />
            <mxPoint x="580" y="1040" as="targetPoint" />
          </mxGeometry>
        </mxCell>
        <mxCell id="bnoOLWUFZuZc33-oHrPN-58" value="" style="endArrow=none;html=1;rounded=0;entryX=0;entryY=0.5;entryDx=0;entryDy=0;" parent="1" target="5JrX3-N6ZL3WyslIG2HY-35" edge="1">
          <mxGeometry width="50" height="50" relative="1" as="geometry">
            <mxPoint x="260" y="720" as="sourcePoint" />
            <mxPoint x="580" y="1240" as="targetPoint" />
          </mxGeometry>
        </mxCell>
        <mxCell id="bnoOLWUFZuZc33-oHrPN-59" value="" style="endArrow=none;html=1;rounded=0;" parent="1" edge="1">
          <mxGeometry width="50" height="50" relative="1" as="geometry">
            <mxPoint x="500" y="-490" as="sourcePoint" />
            <mxPoint x="700" y="490" as="targetPoint" />
          </mxGeometry>
        </mxCell>
        <mxCell id="Sqw5TXh-9UaxIWsucBGU-13" value="" style="endArrow=none;html=1;rounded=0;entryX=0;entryY=0.5;entryDx=0;entryDy=0;" edge="1" parent="1" target="bnoOLWUFZuZc33-oHrPN-1">
          <mxGeometry width="50" height="50" relative="1" as="geometry">
            <mxPoint x="280" y="220" as="sourcePoint" />
            <mxPoint x="340" y="180" as="targetPoint" />
          </mxGeometry>
        </mxCell>
        <mxCell id="Sqw5TXh-9UaxIWsucBGU-14" value="" style="endArrow=none;html=1;rounded=0;exitX=0;exitY=0.5;exitDx=0;exitDy=0;" edge="1" parent="1" source="GNItqELm_zsXpws-zPew-16">
          <mxGeometry width="50" height="50" relative="1" as="geometry">
            <mxPoint x="240" y="400" as="sourcePoint" />
            <mxPoint x="280" y="220" as="targetPoint" />
          </mxGeometry>
        </mxCell>
        <mxCell id="Sqw5TXh-9UaxIWsucBGU-15" value="" style="endArrow=none;html=1;rounded=0;exitX=0;exitY=0.5;exitDx=0;exitDy=0;" edge="1" parent="1" source="nIRv_Cfk8VG59TKc5owY-6">
          <mxGeometry width="50" height="50" relative="1" as="geometry">
            <mxPoint x="270" y="530" as="sourcePoint" />
            <mxPoint x="280" y="230" as="targetPoint" />
          </mxGeometry>
        </mxCell>
        <mxCell id="Sqw5TXh-9UaxIWsucBGU-16" value="" style="endArrow=none;html=1;rounded=0;exitX=0;exitY=0.5;exitDx=0;exitDy=0;" edge="1" parent="1" source="5JrX3-N6ZL3WyslIG2HY-20">
          <mxGeometry width="50" height="50" relative="1" as="geometry">
            <mxPoint x="210" y="460" as="sourcePoint" />
            <mxPoint x="280" y="220" as="targetPoint" />
          </mxGeometry>
        </mxCell>
        <mxCell id="Sqw5TXh-9UaxIWsucBGU-17" value="" style="endArrow=none;html=1;rounded=0;" edge="1" parent="1">
          <mxGeometry width="50" height="50" relative="1" as="geometry">
            <mxPoint x="380" y="840" as="sourcePoint" />
            <mxPoint x="280" y="220" as="targetPoint" />
          </mxGeometry>
        </mxCell>
        <mxCell id="Sqw5TXh-9UaxIWsucBGU-18" value="" style="endArrow=none;html=1;rounded=0;exitX=0.084;exitY=0.275;exitDx=0;exitDy=0;exitPerimeter=0;" edge="1" parent="1" source="5JrX3-N6ZL3WyslIG2HY-22">
          <mxGeometry width="50" height="50" relative="1" as="geometry">
            <mxPoint x="170" y="470" as="sourcePoint" />
            <mxPoint x="280" y="230" as="targetPoint" />
          </mxGeometry>
        </mxCell>
        <mxCell id="Sqw5TXh-9UaxIWsucBGU-22" value="" style="endArrow=none;html=1;rounded=0;exitX=0.021;exitY=0.351;exitDx=0;exitDy=0;exitPerimeter=0;" edge="1" parent="1" source="5JrX3-N6ZL3WyslIG2HY-24">
          <mxGeometry width="50" height="50" relative="1" as="geometry">
            <mxPoint x="170" y="440" as="sourcePoint" />
            <mxPoint x="280" y="230" as="targetPoint" />
          </mxGeometry>
        </mxCell>
        <mxCell id="Sqw5TXh-9UaxIWsucBGU-23" value="" style="endArrow=none;html=1;rounded=0;exitX=0.084;exitY=0.238;exitDx=0;exitDy=0;exitPerimeter=0;" edge="1" parent="1" source="bnoOLWUFZuZc33-oHrPN-26">
          <mxGeometry width="50" height="50" relative="1" as="geometry">
            <mxPoint x="160" y="420" as="sourcePoint" />
            <mxPoint x="280" y="230" as="targetPoint" />
          </mxGeometry>
        </mxCell>
        <mxCell id="Sqw5TXh-9UaxIWsucBGU-24" value="" style="endArrow=none;html=1;rounded=0;entryX=0.021;entryY=0.328;entryDx=0;entryDy=0;entryPerimeter=0;" edge="1" parent="1" target="5JrX3-N6ZL3WyslIG2HY-19">
          <mxGeometry width="50" height="50" relative="1" as="geometry">
            <mxPoint x="280" y="220" as="sourcePoint" />
            <mxPoint x="450" y="230" as="targetPoint" />
          </mxGeometry>
        </mxCell>
      </root>
    </mxGraphModel>
  </diagram>
</mxfile>
